<svg width="178" height="178" viewBox="0 0 178 178" fill="none" xmlns="http://www.w3.org/2000/svg">
<path d="M177.987 89.0014C177.987 89.0014 177.913 88.5165 177.839 87.5713C177.769 86.5642 177.675 85.1712 177.551 83.3773C177.491 82.4519 177.429 81.4201 177.357 80.2894C177.233 79.1586 176.988 77.9338 176.787 76.6026C176.362 73.9378 175.955 70.8498 174.931 67.4921C173.363 60.6729 170.152 52.619 165.099 44.0826C160.005 35.5808 152.661 26.703 142.663 19.1687C132.697 11.7061 120.123 5.35703 105.606 2.79364C101.969 2.28393 98.2901 1.53421 94.4792 1.51689C92.5837 1.45503 90.6734 1.26699 88.7456 1.29916C86.8179 1.39813 84.8802 1.49956 82.9227 1.60101C81.9476 1.67029 80.9602 1.6604 79.9827 1.78907L77.0501 2.23939C75.0951 2.56353 73.1029 2.79362 71.133 3.20189C67.2527 4.25842 63.2309 5.04525 59.4102 6.63624C55.4654 7.89815 51.7563 9.84297 47.943 11.6665C46.0872 12.6711 44.3083 13.8415 42.4699 14.9302C40.5967 15.9719 38.8823 17.266 37.1655 18.5749C33.5904 21.0195 30.4692 24.0827 27.1968 27.0271C24.2394 30.2908 21.1332 33.4851 18.5852 37.1892C13.3528 44.4315 8.78774 52.4805 6.0239 61.3311C3.15834 70.1298 1.61761 79.4728 1.48612 88.9817C1.61513 98.4929 3.1509 107.841 6.01399 116.642C8.77783 125.495 13.3453 133.547 18.5778 140.794C21.1258 144.5 24.232 147.695 27.1894 150.958C30.4618 153.905 33.5878 156.969 37.1605 159.413C38.8773 160.722 40.5942 162.019 42.4649 163.06C44.3033 164.149 46.0822 165.319 47.938 166.324C51.7513 168.15 55.4605 170.092 59.4028 171.354C63.226 172.95 67.2452 173.732 71.128 174.789C73.0979 175.197 75.0877 175.427 77.0452 175.751L79.9777 176.201C80.9528 176.33 81.9402 176.325 82.9152 176.389C84.8703 176.491 86.8129 176.595 88.7381 176.691C90.6634 176.721 92.5787 176.535 94.4742 176.474C98.2851 176.454 101.962 175.707 105.602 175.197C120.118 172.631 132.692 166.284 142.658 158.819C152.656 151.285 159.998 142.405 165.091 133.905C170.142 125.369 173.353 117.315 174.918 110.496C175.943 107.138 176.35 104.05 176.777 101.385C176.978 100.054 177.221 98.8294 177.345 97.6987C177.417 96.5679 177.481 95.5361 177.538 94.6132C177.662 92.8193 177.757 91.4263 177.826 90.4192C177.91 89.4864 177.987 89.0014 177.987 89.0014C177.987 89.0014 178.012 89.4864 177.99 90.4341C177.955 91.4436 177.91 92.8416 177.851 94.6404C177.814 95.5732 177.774 96.6075 177.732 97.7432C177.633 98.8814 177.412 100.114 177.231 101.457C176.849 104.142 176.484 107.254 175.499 110.644C174.003 117.53 170.854 125.683 165.823 134.338C160.749 142.961 153.386 151.985 143.31 159.666C133.27 167.274 120.552 173.764 105.84 176.422C102.153 176.956 98.424 177.726 94.5586 177.76C92.6358 177.832 90.6956 178.023 88.7406 177.998C86.7881 177.904 84.8157 177.805 82.8334 177.711C81.8435 177.644 80.8411 177.651 79.8487 177.525L76.869 177.077C74.8817 176.753 72.8597 176.523 70.86 176.115C66.9152 175.056 62.8315 174.264 58.9437 172.656C54.9344 171.381 51.1609 169.419 47.2855 167.571C45.3975 166.554 43.5838 165.369 41.7156 164.268C39.8127 163.211 38.0686 161.895 36.3195 160.569C32.6848 158.087 29.5017 154.984 26.1747 151.99C23.1602 148.682 20.0044 145.433 17.4043 141.67C12.0776 134.306 7.43063 126.121 4.61221 117.117C1.69455 108.168 0.126531 98.6587 0 88.9891C0.126531 79.3219 1.69701 69.8156 4.61963 60.8709C7.43557 51.8693 12.085 43.6842 17.4117 36.3281C20.0068 32.5646 23.1677 29.3208 26.1772 26.0077C29.5042 23.0138 32.6873 19.911 36.322 17.4292C38.0711 16.103 39.8152 14.7892 41.7181 13.7326C43.5863 12.6315 45.3999 11.4439 47.288 10.4294C51.1633 8.58107 54.9369 6.61646 58.9462 5.34219C62.8315 3.73635 66.9177 2.93963 70.86 1.88557C72.8597 1.47731 74.8817 1.2472 76.869 0.923061L79.8487 0.47521C80.8411 0.346545 81.841 0.353957 82.8309 0.289624C84.8132 0.190652 86.7856 0.0966341 88.7381 0.00260995C90.6931 -0.0246076 92.6333 0.168391 94.5561 0.240146C98.419 0.274787 102.148 1.03936 105.837 1.57381C120.55 4.22875 133.265 10.7189 143.308 18.325C153.383 26.0028 160.749 35.0291 165.823 43.6521C170.854 52.3122 174.008 60.4626 175.501 67.3486C176.489 70.7409 176.851 73.8561 177.233 76.5383C177.412 77.8818 177.633 79.1165 177.734 80.2523C177.776 81.3904 177.816 82.4247 177.856 83.3575C177.915 85.1588 177.96 86.5593 177.992 87.5688C178.012 88.5164 177.987 89.0014 177.987 89.0014Z" fill="#263238"/>
<path d="M170.744 75.3617C169.815 65.0608 165.084 55.3331 158.412 47.458C151.877 39.741 143.253 33.5803 133.453 31.194C123.044 28.6596 111.631 30.6259 102.662 36.505C97.3323 40.0028 92.9119 44.8544 89.7994 50.4371C87.0016 45.3534 83.1171 40.8674 78.4262 37.4634C69.7476 31.1644 58.4384 28.6547 47.9159 30.6951C38.0179 32.612 29.1131 38.3627 22.2243 45.7536C15.188 53.3026 10.0054 62.7981 8.59417 73.0396C6.82894 85.8651 8.97274 100.005 15.3502 111.259C22.0865 123.146 33.1893 132.878 44.6853 140.205C64.0045 152.531 89.4602 168 89.4602 168C89.4602 168 111.656 152.126 131.535 140.734C143.361 133.955 154.911 124.761 162.193 113.215C169.102 102.277 171.909 88.2562 170.744 75.3617Z" fill="#FF725E"/>
<path d="M26.9215 70.3864C26.9215 70.3864 26.7743 91.754 30.6959 100.551C35.3525 110.997 45.2337 111.94 45.2337 111.94C45.2337 111.94 44.7046 114.824 62.1744 119.941C67.1752 121.405 72.3619 125.984 73.1476 127.689C75.8678 133.597 75.6132 136.611 75.3188 142.764C75.0115 149.208 73.8965 159.589 73.8965 159.589L121.489 141.906L109.294 81.107L70.1191 69.1243C70.1191 69.1243 65.9846 71.7431 60.2767 70.4581C54.5688 69.174 24.2709 63.6352 26.9215 70.3864Z" fill="#AE7461"/>
<path d="M60.1823 73.8148C60.1823 73.8148 64.9324 70.467 66.6978 68.4987C67.5501 67.5479 71.2291 61.9315 73.9453 60.2586C76.6605 58.5857 89.2966 54.312 100.088 57.249C110.88 60.186 126.186 66.1177 133.044 78.7001C139.903 91.2826 145.608 134.261 150.758 141.603C154.66 147.166 82.9701 149.568 82.9074 148.592C82.8448 147.616 60.1823 73.8148 60.1823 73.8148Z" fill="#AE7461"/>
<path d="M74.8275 136.015C74.8275 136.015 114.961 135.925 143.851 115.499C145.274 117.551 146.549 123.278 145.621 125.656C145.621 125.656 109.201 147.598 75.094 144.711C74.6365 141.858 74.0248 138.289 74.8275 136.015Z" fill="#FF725E"/>
<g opacity="0.3">
<path d="M130.135 99.1139L85.4575 127.869C84.813 131.482 86.3696 135.304 89.0589 137.954C91.7483 140.605 95.4511 142.161 99.2285 142.79C110.092 144.6 121.322 138.713 126.988 129.734C132.654 120.757 133.212 109.305 130.135 99.1139Z" fill="black"/>
</g>
<path d="M122.078 77.3574C125.177 83.4452 128.293 89.5768 130.189 96.1411C132.083 102.703 132.7 109.799 130.759 116.347C127.256 128.155 115.805 136.336 103.773 138.969C98.1305 140.203 91.4211 140.084 87.576 135.774C85.0209 132.911 84.3466 128.757 84.8419 124.951C85.3372 121.145 86.8589 117.561 88.2414 113.981C93.1218 101.344 96.4318 88.1029 98.0718 74.6561" fill="#AE7461"/>
<path d="M98.0688 74.6561C98.0798 74.6571 98.0718 74.7974 98.047 75.0669C98.0161 75.3673 97.9743 75.7621 97.9216 76.2644C97.8073 77.3166 97.6093 78.8652 97.307 80.8524C96.7033 84.8257 95.6749 90.5645 93.8339 97.5216C92.9119 100.998 91.7831 104.776 90.4086 108.777C89.7213 110.777 88.9664 112.832 88.1528 114.933C87.3413 117.031 86.4879 119.181 85.8544 121.449C85.2238 123.715 84.827 126.118 85.0269 128.558C85.2308 130.977 85.9896 133.468 87.6327 135.385C89.2608 137.312 91.6677 138.527 94.2347 139.012C96.8107 139.521 99.5299 139.405 102.2 138.963C112.9 137.04 122.351 130.981 127.397 123.007C129.929 119.035 131.262 114.635 131.582 110.462C131.935 106.278 131.44 102.346 130.669 98.8632C129.884 95.3723 128.786 92.3099 127.731 89.6683C126.67 87.0247 125.627 84.8009 124.768 82.9857C123.907 81.2035 123.231 79.8071 122.754 78.8234C122.537 78.3689 122.365 78.0099 122.236 77.7373C122.122 77.4917 122.069 77.3624 122.078 77.3584C122.087 77.3534 122.16 77.4728 122.292 77.7105C122.434 77.975 122.624 78.3261 122.863 78.7687C123.359 79.7036 124.082 81.0861 124.979 82.8843C125.871 84.6855 126.947 86.9004 128.043 89.542C129.133 92.1836 130.264 95.2519 131.085 98.7697C131.89 102.28 132.417 106.252 132.081 110.503C131.777 114.743 130.435 119.247 127.866 123.302C122.739 131.45 113.169 137.599 102.301 139.555C99.5766 140.005 96.7948 140.126 94.1203 139.598C91.4598 139.094 88.9077 137.815 87.1841 135.765C85.4426 133.723 84.6609 131.108 84.455 128.604C84.2551 126.073 84.6738 123.597 85.3233 121.301C85.9757 118.995 86.842 116.833 87.6625 114.741C88.4831 112.648 89.2449 110.604 89.9401 108.613C91.3306 104.631 92.4793 100.872 93.4251 97.4111C95.3138 90.4879 96.4029 84.772 97.0772 80.8156C97.4134 78.8373 97.6501 77.2948 97.8023 76.2485C97.8799 75.7512 97.9415 75.3573 97.9873 75.0589C98.031 74.7914 98.0589 74.6551 98.0688 74.6561Z" fill="#263238"/>
<g opacity="0.3">
<path d="M86.3875 68.1287C85.1045 67.5399 83.6713 67.3569 82.2679 67.6026C81.7468 67.6931 81.1709 67.891 80.8864 68.4211C80.4528 69.2307 80.962 70.2164 81.525 70.835C82.5892 72.0036 83.9169 72.842 85.3561 73.2558C85.8703 73.403 86.4074 73.4965 86.9415 73.396C87.4756 73.2956 88.0097 72.9803 88.3239 72.4502C88.7994 71.6495 88.6621 70.5515 88.2135 69.7917C87.765 69.0328 87.0688 68.5385 86.3905 68.0641" fill="black"/>
</g>
<path d="M79.2593 79.7564C78.7899 82.0558 76.5441 83.5387 74.2446 83.0693C71.9462 82.5999 70.4632 80.3541 70.9327 78.0546C71.4021 75.7551 73.6479 74.2732 75.9464 74.7427C78.2458 75.2131 79.7288 77.4589 79.2593 79.7564Z" fill="#263238"/>
<path d="M67.4795 112.572C67.4934 112.611 67.1195 112.756 66.4243 112.985C66.0801 113.118 65.6395 113.193 65.1333 113.304C64.6261 113.424 64.0432 113.508 63.3928 113.581C60.8009 113.911 57.1816 113.898 53.2361 113.477C49.2846 113.075 45.7569 112.357 43.2376 111.712C41.9795 111.383 40.9749 111.059 40.2917 110.811C39.6133 110.539 39.2483 110.371 39.2633 110.332C39.2981 110.245 40.8049 110.773 43.3361 111.299C45.8613 111.834 49.3781 112.479 53.2978 112.879C57.2154 113.299 60.787 113.376 63.35 113.159C65.921 112.973 67.4467 112.467 67.4795 112.572Z" fill="#263238"/>
<path d="M114.601 111.818C114.623 111.819 114.632 112.154 114.593 112.787C114.54 113.419 114.415 114.347 114.082 115.495C113.428 117.748 111.83 121.026 108.404 123.482L107.955 123.804L108.018 123.25C108.576 118.257 108.97 112.136 108.877 105.539C108.855 104.153 108.816 102.788 108.761 101.453L109.342 101.53C108.06 105.567 106.107 109.069 104.014 111.84L103.36 112.706L103.551 111.641C104.367 107.074 105.051 103.239 105.547 100.455C105.795 99.1667 105.996 98.1254 106.149 97.3267C106.296 96.6066 106.387 96.2237 106.415 96.2287C106.443 96.2327 106.403 96.6245 106.307 97.3536C106.189 98.1572 106.036 99.2085 105.847 100.505C105.403 103.299 104.792 107.145 104.063 111.727L103.598 111.529C105.629 108.777 107.524 105.322 108.774 101.351L109.282 99.7376L109.356 101.427C109.415 102.768 109.457 104.139 109.479 105.53C109.573 112.157 109.136 118.303 108.509 123.308L108.123 123.076C111.459 120.75 113.092 117.598 113.812 115.41C114.535 113.175 114.516 111.807 114.601 111.818Z" fill="#263238"/>
<path d="M39.672 71.7004C39.4383 70.5805 38.2806 69.7689 37.1488 69.1821C35.5077 68.3308 33.7304 67.6962 31.8984 67.3073C31.1564 67.1502 30.3856 67.0328 29.6496 67.1482C28.9136 67.2646 27.3462 67.7251 27.0896 68.3347C25.4505 71.7024 25.7349 75.3784 27.4456 78.8654C27.733 79.4512 28.1826 80.0996 28.8947 80.1822C29.2617 80.225 29.6158 80.1006 29.946 79.9723C33.07 78.7649 35.8837 76.9926 38.1732 74.7945C39.0603 73.9442 39.9167 72.874 39.672 71.7004Z" fill="#263238"/>
<path d="M32.3022 69.4764C31.7343 68.8966 31.1196 68.2909 30.3269 68.1218C29.7759 68.0034 29.0101 68.3386 28.5834 68.825C28.3109 69.1353 28.3587 69.6296 28.6919 69.8742C29.582 70.5267 30.6392 70.9544 31.7343 71.0966C32.0973 71.1443 32.5309 71.1324 32.7468 70.835C33.0521 70.4133 32.6662 69.8474 32.3022 69.4764Z" fill="white"/>
</svg>
